<?xml version="1.0" encoding="utf-8"?>
<!-- Generator: Adobe Illustrator 27.8.1, SVG Export Plug-In . SVG Version: 6.00 Build 0)  -->
<svg version="1.1" id="Capa_1" xmlns="http://www.w3.org/2000/svg" xmlns:xlink="http://www.w3.org/1999/xlink" x="0px" y="0px"
	 viewBox="0 0 512 512" style="enable-background:new 0 0 512 512;" xml:space="preserve">
<style type="text/css">
	.st0{fill:#4CAE50;}
	.st1{fill:#FFFFFF;}
</style>
<g>
	<path style="fill:#4CAE50;" d="M461.1,256c0,113.3-91.9,205.1-205.2,205.1S50.8,369.3,50.8,256S142.7,50.8,256,50.8
		C369.3,50.8,461.1,142.7,461.1,256z"/>
</g>
<g id="XMLID_1_">
	<path id="XMLID_4_" style="fill:#FFFFFF;" d="M214.7,193.8l-30.3,60.4l0.2,0.1c6.1,3.4,11.4,2.7,14.2-2.1c3.7-6.2,7.4-10.3,13.6-10.3
		c6.4,0,9.3,5.3,11.4,9.2l3.8,6.6c2.6,4.6,4.1,6.9,7.1,6.9c2.3,0,5-2.1,5.5-5.7l1.6-12.4c0.9-7,6-11.9,12.2-11.9
		c6.1,0,8.6,4.8,10.7,8.6c0.4,0.7,0.8,1.4,1.1,2.1c1.4,2.4,5.2,5.8,10.1,7.5c3.4,1.2,5.6,2.8,7.4,4.2c2,1.6,3.3,2.6,6,2.7
		c3.3,0.2,6.8-1.6,9-15.9c0.6-4,2.9-7.5,6-9.1c1.6-0.9,4-1.6,7.1-0.9L292.3,194c-5.1,9.1-20.1,15.4-38.8,15.4
		C234.8,209.4,219.8,203.1,214.7,193.8z"/>
	<path id="XMLID_3_" style="fill:#FFFFFF;" d="M343.6,298.8l-27.8-56.8l-3.4-1.6c-2-0.9-3.6-1-4.9-0.3c-1.4,0.7-2.5,2.5-2.8,4.6
		c-1,6.5-3.4,21.8-15.5,21.1c-4.6-0.3-7.2-2.2-9.5-3.9c-1.6-1.2-3.2-2.4-5.6-3.2c-6.9-2.4-11.6-7-13.5-10.3
		c-0.4-0.8-0.9-1.5-1.2-2.3c-2.1-3.9-3.1-5.4-5.2-5.4c-3.6,0-5.7,3.3-6.1,6.5l-1.6,12.3c-0.9,6.3-5.8,11.1-11.6,11.1
		c-6.8,0-9.8-5.2-12.4-9.7l-4-7c-2-3.7-3.5-6-6-6c-2.6,0-4.7,1.1-8.3,7.3c-4.6,7.7-13.4,9.4-22.5,4.4l-31,61.8
		c0,6.8,15.4,4.4,22.7,2.8l21.2-48.3l5.6,2.5l-20.7,47.1c7.4,6,29.8,22.1,44.5,7.8l1.3-24.8l6.2,0.3l-1.2,23.2
		c6.8,3.1,22.1,9.4,36.4,9.4c32,0,47.5-12.8,52.8-18.5l-13.7-37.1l5.8-2.1l15.1,40.7c11.8,9,13.2-2.5,34.8,4L343.6,298.8z"/>
	<path id="XMLID_2_" style="fill:#FFFFFF;" d="M288,186.9c0-0.9-0.2-1.8-0.5-2.7c0,0,0-0.1,0-0.1v0c-2.8-7.7-16.9-13.5-33.9-13.5
		c-17,0-31.1,5.9-33.9,13.5v0c0,0,0,0,0,0.1c-0.2,0.4-0.3,0.8-0.4,1.3c-0.1,0.5-0.2,0.9-0.2,1.4c0,9,15.4,16.3,34.5,16.3
		C272.6,203.2,288,195.9,288,186.9z"/>
</g>
</svg>
